<?xml version="1.0" encoding="UTF-8" standalone="no"?>
<svg
   fill="#000000"
   viewBox="0 0 256 256"
   width="256"
   height="256"
   version="1.1"
   id="svg826"
   sodipodi:docname="amazon-music.svg"
   inkscape:version="1.1.1 (c3084ef, 2021-09-22)"
   xmlns:inkscape="http://www.inkscape.org/namespaces/inkscape"
   xmlns:sodipodi="http://sodipodi.sourceforge.net/DTD/sodipodi-0.dtd"
   xmlns="http://www.w3.org/2000/svg"
   xmlns:svg="http://www.w3.org/2000/svg">
  <defs
     id="defs830" />
  <sodipodi:namedview
     id="namedview828"
     pagecolor="#ffffff"
     bordercolor="#666666"
     borderopacity="1.0"
     inkscape:pageshadow="2"
     inkscape:pageopacity="0.0"
     inkscape:pagecheckerboard="0"
     showgrid="false"
     borderlayer="true"
     inkscape:zoom="1.75"
     inkscape:cx="127.71429"
     inkscape:cy="130.85714"
     inkscape:window-width="1264"
     inkscape:window-height="682"
     inkscape:window-x="0"
     inkscape:window-y="23"
     inkscape:window-maximized="0"
     inkscape:current-layer="svg826" />
  <path
     d="M 197.91429,1.2857143 H 58.371428 c -31.530342,0 -57.0857137,25.5553717 -57.0857137,57.0857137 V 197.91429 c 0,31.53034 25.5553717,57.0857 57.0857137,57.0857 H 197.91429 c 31.53034,0 57.0857,-25.55536 57.0857,-57.0857 V 58.371428 c 0,-31.530342 -25.55536,-57.0857137 -57.0857,-57.0857137 z M 211.80513,104.38251 c 4.12286,-1.76966 9.00686,-2.01068 13.12972,-0.76748 1.71258,0.5328 3.23486,1.2432 4.69372,2.12486 v 7.8017 c -4.56686,-3.13336 -9.83144,-4.02136 -13.89086,-1.83308 -4.31314,2.36588 -6.85028,7.326 -6.72342,12.52714 -0.0634,5.73394 1.83942,11.04926 5.83542,13.52932 3.552,2.42296 9.13372,2.42296 14.77886,1.53496 v 6.50144 c -2.22,0.7104 -4.56686,1.12268 -6.97714,1.35736 -3.996,0.29812 -8.436,-0.2981 -12.36858,-2.42296 -3.996,-2.06778 -6.91372,-5.67052 -8.56286,-9.2796 -1.5857,-3.72326 -2.15656,-7.5036 -2.22,-11.11268 -0.19028,-7.67486 3.93258,-16.30116 12.30514,-19.96098 z M 185.22857,83.806286 c 3.50126,0 6.34286,2.8416 6.34286,6.342856 0,3.501258 -2.8416,6.342858 -6.34286,6.342858 -3.50126,0 -6.34286,-2.8416 -6.34286,-6.342858 0,-3.501256 2.8416,-6.342856 6.34286,-6.342856 z m 4.75714,19.028564 v 44.4 h -9.51428 v -44.4 z m -49.15714,32.76086 c 4.05942,1.65548 9.00686,3.3744 12.876,3.74228 3.86914,0.43132 8.11886,-0.0634 10.59256,-1.41446 1.20516,-0.73576 1.45886,-1.7633 1.45886,-2.90502 0,-1.14172 -0.22834,-1.78868 -0.78016,-2.64498 -1.00852,-1.56034 -3.7867,-2.7401 -8.16326,-3.78668 -2.15658,-0.61526 -4.50344,-1.23052 -7.104,-2.63862 -2.60058,-1.1671 -7.88418,-5.40412 -6.85664,-12.62864 0.55184,-3.8628 4.55418,-7.64314 10.15492,-9.40646 6.5268,-2.06142 13.63714,-1.04022 19.536,1.78236 v 7.8588 c -5.26456,-2.70206 -11.544,-4.06578 -16.872,-2.28978 -1.58572,0.4884 -3.67886,1.59206 -3.67886,3.57738 0,4.76348 5.5183,5.66416 7.61144,6.34284 2.15656,0.67236 4.50342,1.2876 7.04056,2.5752 2.53714,1.23052 7.62412,4.30046 7.62412,11.30932 0,6.71074 -3.31098,9.17812 -6.0384,10.28178 -5.64514,2.45468 -10.656,2.02336 -15.54,1.35102 -4.12286,-0.73576 -8.11886,-1.96628 -11.86114,-4.29412 0,0 0,-6.81222 0,-6.81222 z m -42.81428,-32.74818 9.51428,-0.0126 0.019,15.34972 c 0.0888,5.01086 0.0762,10.47206 0.019,15.11502 -0.222,2.48006 2.54982,5.3724 6.19062,5.8164 1.94092,0.21566 3.38708,0.0571 5.61978,-0.888 1.3193,-0.5201 2.664,-0.9641 4.00868,-1.42714 v -33.966 l 9.51428,0.006 v 43.2456 h -9.51425 v -1.49691 c -0.26006,0.13954 -0.50742,0.29177 -0.76114,0.42497 -2.41664,1.44617 -6.29212,2.44834 -9.60308,2.1756 -3.43784,-0.222 -6.90104,-1.42714 -9.7236,-3.71692 -2.80355,-2.25805 -4.922059,-5.80371 -5.1948,-9.69822 -0.171259,-5.58172 -0.126859,-10.36423 -0.06979,-15.5844 z m -69.771434,-0.0126 h 9.514286 v 4.36388 c 2.346858,-0.84994 4.674686,-1.73794 7.03423,-2.54348 3.393428,-1.20514 7.649484,-0.96412 10.99217,0.89434 1.382744,0.74212 2.59423,1.7887 3.65983,2.9748 3.564684,-1.3193 7.123028,-2.64496 10.713084,-3.87548 3.39343,-1.20514 7.649486,-0.96412 10.992172,0.89434 3.3744,1.81406 6.000344,5.13138 6.932744,8.99418 0.24737,0.9641 0.3552,1.9409 0.412284,2.92406 l 0.02538,2.01068 0.03806,3.96428 -0.03806,7.92858 -0.01902,15.85714 h -9.514294 l -0.03806,-30.7248 c -0.2664,-2.69572 -3.291942,-5.05526 -6.46337,-4.19264 -3.234858,0.8563 -6.495086,1.61744 -9.748972,2.40396 0.215658,0.90702 0.329828,1.8204 0.386914,2.74644 l 0.02538,2.0107 0.03806,3.96428 -0.03806,7.92858 -0.01902,15.85714 h -9.514286 l -0.03806,-30.7248 c -0.2664,-2.70206 -3.291942,-5.05526 -6.463371,-4.19264 -3.101657,0.82458 -6.235029,1.554 -9.355715,2.3088 v 32.6023 h -9.514286 c 0,0 0,-44.37464 0,-44.37464 z m 187.228454,81.9624 c -14.04308,9.95828 -29.73532,16.52314 -46.20772,20.78554 -16.4597,4.20532 -33.5981,5.79738 -50.65406,4.62394 -17.0496,-1.1417 -33.699588,-5.30262 -49.391816,-11.37908 -15.641486,-6.27942 -30.426686,-14.35388 -43.492972,-24.93376 -0.678686,-0.55184 -0.786514,-1.554 -0.234686,-2.2327 0.4884,-0.60256 1.325658,-0.7548 1.985316,-0.3996 l 0.0888,0.0508 c 14.265084,7.71925 29.513314,13.6308 44.82497,18.32451 15.432172,4.38926 31.137088,7.52898 46.937148,8.1696 15.762,0.55184 31.69524,-0.67868 47.24794,-3.91354 15.48926,-3.1968 31.1117,-7.83977 45.47828,-14.45537 l 0.24738,-0.11417 c 1.59204,-0.72943 3.46954,-0.038 4.2053,1.554 0.65966,1.41446 0.1903,3.05726 -1.03388,3.91988 z m 7.06594,18.77486 c -1.76332,1.332 -3.52662,0.888 -2.64496,-1.332 2.64496,-7.104 8.37256,-22.20634 5.7276,-25.75834 -3.08264,-3.996 -18.94612,-1.776 -25.99304,-0.888 -2.20096,0 -2.20096,-1.776 -0.43766,-3.108 6.16526,-4.44 14.53784,-6.216 21.5911,-6.216 7.0469,0 13.2185,1.332 14.53782,3.552 2.19462,2.65766 -0.888,23.532 -12.78086,33.75034 z"
     id="path824"
     style="stroke-width:6.34286" />
</svg>
