<?xml version="1.0" encoding="UTF-8" standalone="no"?>
<svg
   viewBox="0 0 256 256"
   version="1.1"
   width="256"
   height="256"
   id="svg826"
   sodipodi:docname="apple-music.svg"
   inkscape:version="1.1.1 (c3084ef, 2021-09-22)"
   xmlns:inkscape="http://www.inkscape.org/namespaces/inkscape"
   xmlns:sodipodi="http://sodipodi.sourceforge.net/DTD/sodipodi-0.dtd"
   xmlns="http://www.w3.org/2000/svg"
   xmlns:svg="http://www.w3.org/2000/svg">
  <defs
     id="defs830" />
  <sodipodi:namedview
     id="namedview828"
     pagecolor="#ffffff"
     bordercolor="#666666"
     borderopacity="1.0"
     inkscape:pageshadow="2"
     inkscape:pageopacity="0.0"
     inkscape:pagecheckerboard="0"
     showgrid="false"
     borderlayer="true"
     inkscape:zoom="2.0149341"
     inkscape:cx="136.72904"
     inkscape:cy="123.08095"
     inkscape:window-width="1356"
     inkscape:window-height="748"
     inkscape:window-x="0"
     inkscape:window-y="23"
     inkscape:window-maximized="0"
     inkscape:current-layer="svg826" />
  <path
     style="fill:#000000;fill-opacity:1;stroke:#ffffff;stroke-width:0;stroke-miterlimit:4;stroke-dasharray:none;stroke-opacity:1"
     d="m 44.755628,1.5012844 c -22.003544,0 -39.7170237,18.2760906 -39.7170237,40.9785046 V 213.91903 c 0,22.7024 17.7134797,40.97946 39.7170237,40.97946 H 210.9173 c 22.00354,0 39.71796,-18.27706 39.71796,-40.97946 V 42.479789 c 0,-22.702414 -17.71442,-40.9785046 -39.71796,-40.9785046 z M 180.61869,40.358988 c 5.46294,0.236826 5.46294,7.815241 5.46294,7.815241 V 163.98467 c 0,14.35258 -2.39841,28.70516 -16.78882,34.14922 -37.41514,12.86784 -41.73226,-34.64415 -14.39045,-39.09837 14.39045,-1.64974 21.58566,-4.94917 21.58566,-9.89834 V 88.757367 c -0.3198,-3.959324 -2.23853,-5.609046 -5.75618,-4.94916 l -66.19598,13.857657 c -3.19788,0.65989 -4.7968,2.474586 -4.7968,5.444086 v 79.18662 c 0,14.35259 -2.398406,28.70516 -16.788837,34.14924 -37.415117,12.86782 -41.732246,-34.64414 -14.390435,-39.0984 14.390435,-1.64971 21.58565,-4.94917 21.58565,-9.89834 V 66.981051 c 0,-7.918671 6.235854,-8.908496 6.235854,-8.908496 L 177.92706,40.750476 c 1.0193,-0.309323 1.91122,-0.425316 2.69163,-0.391488 z"
     id="path824" />
</svg>
