<?xml version="1.0" encoding="UTF-8" standalone="no"?>
<svg
   viewBox="0 0 256 256"
   xml:space="preserve"
   version="1.1"
   id="svg826"
   sodipodi:docname="facebook-video.svg"
   width="256"
   height="256"
   inkscape:version="1.1.1 (c3084ef, 2021-09-22)"
   xmlns:inkscape="http://www.inkscape.org/namespaces/inkscape"
   xmlns:sodipodi="http://sodipodi.sourceforge.net/DTD/sodipodi-0.dtd"
   xmlns="http://www.w3.org/2000/svg"
   xmlns:svg="http://www.w3.org/2000/svg"><defs
     id="defs830" /><sodipodi:namedview
     id="namedview828"
     pagecolor="#ffffff"
     bordercolor="#666666"
     borderopacity="1.0"
     inkscape:pageshadow="2"
     inkscape:pageopacity="0.0"
     inkscape:pagecheckerboard="0"
     showgrid="false"
     borderlayer="true"
     inkscape:zoom="1.8756036"
     inkscape:cx="139.42179"
     inkscape:cy="128.49197"
     inkscape:window-width="1398"
     inkscape:window-height="770"
     inkscape:window-x="0"
     inkscape:window-y="23"
     inkscape:window-maximized="0"
     inkscape:current-layer="svg826" /><path
     style="fill:#000000;fill-opacity:1;stroke-width:11.0013"
     d="m 70.857544,252.37689 c -4.554534,0 -8.250966,-3.69643 -8.250966,-8.25097 0,-4.55453 3.696432,-8.25097 8.250966,-8.25097 H 186.37108 c 4.55454,0 8.25098,3.69644 8.25098,8.25097 0,4.55454 -3.69644,8.25097 -8.25098,8.25097 z m 92.564846,-136.46 -56.20559,33.85097 c -5.10459,3.06936 -11.606355,-0.59407 -11.606355,-6.55677 V 75.498157 c 0,-5.951698 6.501765,-9.626128 11.606355,-6.556769 l 56.20559,33.861962 c 4.92858,2.97036 4.92858,10.1322 0,13.11354 M 213.87431,4.8478755 H 43.354321 c -22.750667,0 -41.2548359,18.5041695 -41.2548359,41.2548355 V 172.61754 c 0,22.75066 18.5041689,41.25483 41.2548359,41.25483 H 213.87431 c 22.75066,0 41.25483,-18.50417 41.25483,-41.25483 V 46.102711 c 0,-22.750666 -18.50417,-41.2548355 -41.25483,-41.2548355"
     id="path824" /></svg>
