<?xml version="1.0" encoding="UTF-8" standalone="no"?>
<svg
   enable-background="new"
   id="svg996"
   version="1.1"
   viewBox="0 0 67.733332 67.733335"
   height="256"
   width="256"
   sodipodi:docname="lyrics.svg"
   inkscape:version="1.1.1 (c3084ef, 2021-09-22)"
   xmlns:inkscape="http://www.inkscape.org/namespaces/inkscape"
   xmlns:sodipodi="http://sodipodi.sourceforge.net/DTD/sodipodi-0.dtd"
   xmlns="http://www.w3.org/2000/svg"
   xmlns:svg="http://www.w3.org/2000/svg"
   xmlns:rdf="http://www.w3.org/1999/02/22-rdf-syntax-ns#"
   xmlns:cc="http://creativecommons.org/ns#"
   xmlns:dc="http://purl.org/dc/elements/1.1/">
  <sodipodi:namedview
     id="namedview832"
     pagecolor="#ffffff"
     bordercolor="#666666"
     borderopacity="1.0"
     inkscape:pageshadow="2"
     inkscape:pageopacity="0.0"
     inkscape:pagecheckerboard="0"
     showgrid="false"
     inkscape:zoom="1.6794594"
     inkscape:cx="115.51336"
     inkscape:cy="130.69682"
     inkscape:window-width="1365"
     inkscape:window-height="721"
     inkscape:window-x="64"
     inkscape:window-y="23"
     inkscape:window-maximized="0"
     inkscape:current-layer="svg996"
     showguides="false"
     inkscape:snap-global="false" />
  <title
     id="title1563">Play</title>
  <defs
     id="defs990" />
  <metadata
     id="metadata993">
    <rdf:RDF>
      <cc:Work
         rdf:about="">
        <dc:title>Play</dc:title>
      </cc:Work>
    </rdf:RDF>
  </metadata>
  <rect
     style="fill:none;stroke:#000000;stroke-width:5.00000001;stroke-linejoin:round;stroke-miterlimit:10;stroke-dasharray:none;stop-color:#000000"
     id="rect989"
     width="62.076931"
     height="51.245892"
     x="-64.908562"
     y="8.3176661"
     rx="14.589126"
     transform="rotate(-90)" />
  <g
     aria-label="♫"
     id="text29431"
     style="font-size:50.8px;line-height:1.25;-inkscape-font-specification:'sans-serif, Normal';stroke-width:0.264583"
     transform="translate(-5.1126939,-7.1995318)">
    <path
       d="m 33.638262,26.912654 19.744531,-6.151563 v 27.483594 q 0,3.075781 -0.79375,4.638476 -0.768945,1.562696 -2.654102,2.579688 -1.860351,1.016992 -4.216796,1.016992 -2.703711,0 -4.316016,-1.537891 -1.612305,-1.562695 -1.612305,-4.018359 0,-2.480469 1.909961,-4.266406 1.909961,-1.810742 4.936133,-1.810742 0.992188,0 1.736328,0.173632 0.768945,0.173633 2.480469,0.892969 V 27.954451 l -14.758789,4.588867 v 20.736718 q 0,3.001367 -0.79375,4.688086 -0.79375,1.661914 -2.728516,2.654102 -1.934765,0.992187 -4.216796,0.992187 -2.703711,0 -4.291211,-1.53789 -1.562696,-1.513086 -1.562696,-3.96875 0,-2.604493 1.885157,-4.365625 1.885156,-1.785938 4.936132,-1.785938 1.934766,0 4.316016,1.141016 z"
       id="path33878" />
  </g>
</svg>
