<?xml version="1.0" encoding="UTF-8" standalone="no"?>
<svg
   viewBox="0 0 256 256"
   version="1.1"
   id="svg918"
   sodipodi:docname="podcast.svg"
   width="256"
   height="256"
   inkscape:version="1.1.1 (c3084ef, 2021-09-22)"
   xmlns:inkscape="http://www.inkscape.org/namespaces/inkscape"
   xmlns:sodipodi="http://sodipodi.sourceforge.net/DTD/sodipodi-0.dtd"
   xmlns="http://www.w3.org/2000/svg"
   xmlns:svg="http://www.w3.org/2000/svg">
  <defs
     id="defs922" />
  <sodipodi:namedview
     id="namedview920"
     pagecolor="#ffffff"
     bordercolor="#666666"
     borderopacity="1.0"
     inkscape:pageshadow="2"
     inkscape:pageopacity="0.0"
     inkscape:pagecheckerboard="0"
     showgrid="false"
     borderlayer="true"
     inkscape:zoom="1.7791439"
     inkscape:cx="125.62221"
     inkscape:cy="128.99462"
     inkscape:window-width="1386"
     inkscape:window-height="743"
     inkscape:window-x="0"
     inkscape:window-y="23"
     inkscape:window-maximized="0"
     inkscape:current-layer="svg918" />
  <path
     d="m 150.11944,243.07895 c -2.54109,9.39261 -12.14022,11.57993 -21.45772,11.57993 -9.31701,0 -18.91662,-2.18732 -21.45722,-11.57993 -3.7773,-14.0464 -10.164363,-49.2432 -10.164363,-65.6212 0,-17.37014 15.386863,-21.61632 31.621583,-21.61632 16.23473,0 31.62159,4.24618 31.62159,21.61632 0,16.27968 -6.3594,51.47351 -10.16387,65.6212 z M 95.492161,144.25706 C 86.256189,135.21131 80.690296,122.43174 81.270354,108.38682 82.28521,83.818821 102.21718,63.940703 126.78765,62.989585 c 27.00434,-1.045489 49.30645,20.619742 49.30645,47.395825 0,13.25487 -5.46659,25.25576 -14.26233,33.87066 -1.32168,1.29451 -1.1863,3.4517 0.3103,4.53918 4.60094,3.34251 8.13267,7.58078 10.49145,12.53154 0.8602,1.80539 3.21008,2.30245 4.66862,0.93431 14.24256,-13.3616 23.00124,-32.50253 22.48641,-53.64058 C 198.87201,70.968105 168.36706,40.333709 130.71861,39.265986 90.552277,38.126621 57.513157,70.47056 57.513157,110.38541 c 0,20.43593 8.662338,38.88466 22.505674,51.87372 1.45904,1.36911 3.809907,0.87453 4.670608,-0.93234 2.358771,-4.95125 5.891002,-9.18903 10.491941,-12.53154 1.496591,-1.08699 1.632465,-3.24418 0.310781,-4.53819 z M 128.66172,1.6862042 c -61.166023,0 -110.675542,49.5001308 -110.675542,110.6755458 0,44.4639 25.989977,81.84407 62.126036,99.51313 2.14088,1.04648 4.578706,-0.76287 4.217035,-3.1177 -1.176916,-7.66428 -2.145327,-15.29002 -2.671036,-21.90733 -0.07214,-0.90714 -0.567706,-1.72239 -1.323166,-2.22932 -23.419735,-15.71494 -38.81747,-42.49941 -38.631199,-72.80227 0.2925,-47.549483 39.176177,-86.291358 86.726642,-86.415374 48.05542,-0.125499 87.19059,38.932098 87.19059,86.958864 0,30.59982 -15.88886,57.55623 -39.84814,73.0592 -0.49359,6.93551 -1.51635,15.11314 -2.77875,23.33574 -0.36167,2.35532 2.07665,4.16467 4.21704,3.11769 36.05157,-17.62903 62.12603,-54.95238 62.12603,-99.51263 0,-61.165534 -49.50012,-110.6755458 -110.67554,-110.6755458 z m 0,79.0539588 c -17.46401,0 -31.621583,14.157576 -31.621583,31.621587 0,17.46401 14.157573,31.62159 31.621583,31.62159 17.46401,0 31.62159,-14.15758 31.62159,-31.62159 0,-17.464011 -14.15758,-31.621587 -31.62159,-31.621587 z"
     fill="#ffffff"
     id="path916"
     style="fill:#000000;fill-opacity:1;stroke-width:0.494087" />
</svg>
