<?xml version="1.0" encoding="UTF-8" standalone="no"?>
<svg
   viewBox="0 0 256 256"
   version="1.1"
   id="svg830"
   sodipodi:docname="spotify.svg"
   width="256"
   height="256"
   inkscape:version="1.1.1 (c3084ef, 2021-09-22)"
   xmlns:inkscape="http://www.inkscape.org/namespaces/inkscape"
   xmlns:sodipodi="http://sodipodi.sourceforge.net/DTD/sodipodi-0.dtd"
   xmlns="http://www.w3.org/2000/svg"
   xmlns:svg="http://www.w3.org/2000/svg">
  <defs
     id="defs834" />
  <sodipodi:namedview
     id="namedview832"
     pagecolor="#ffffff"
     bordercolor="#666666"
     borderopacity="1.0"
     inkscape:pageshadow="2"
     inkscape:pageopacity="0.0"
     inkscape:pagecheckerboard="0"
     showgrid="false"
     inkscape:zoom="1.9407086"
     inkscape:cx="122.37798"
     inkscape:cy="128.56129"
     inkscape:window-width="1362"
     inkscape:window-height="755"
     inkscape:window-x="0"
     inkscape:window-y="23"
     inkscape:window-maximized="0"
     inkscape:current-layer="svg830" />
  <path
     d="m 128.32251,2.5433371 c -69.454056,0 -125.756115,56.3020589 -125.756115,125.7561029 0,69.45405 56.302059,125.75611 125.756115,125.75611 69.45404,0 125.7561,-56.3073 125.7561,-125.75611 0,-69.454044 -56.30206,-125.7561029 -125.7561,-125.7561029 M 109.8678,68.177547 c 36.94085,0 75.77853,7.597765 104.15749,24.265689 3.82508,2.164053 6.48168,5.433707 6.48168,11.422844 0,6.8537 -5.51231,11.78439 -11.863,11.78439 -2.56228,0 -4.08183,-0.62354 -6.48168,-1.93874 -22.76185,-13.64977 -58.1098,-21.168937 -92.24733,-21.168937 -17.050438,0 -34.373342,1.734387 -50.234331,6.04153 -1.828704,0.46111 -4.134232,1.37284 -6.450241,1.37284 -6.706992,0 -11.857753,-5.307955 -11.857753,-12.014948 0,-6.832748 4.233789,-10.668309 8.802928,-12.020188 17.925485,-5.292236 37.936426,-7.74448 59.686997,-7.74448 m -2.56228,43.212933 c 32.91665,0 64.75915,8.20035 89.81081,23.18105 4.19711,2.40508 5.74286,5.46515 5.74286,9.93997 0,5.44419 -4.33334,9.84565 -9.80373,9.84565 -2.72996,0 -4.44339,-1.10036 -6.29829,-2.17977 -20.45633,-12.1407 -48.80908,-20.20481 -79.85512,-20.20481 -15.923869,0 -29.667964,2.23217 -41.043652,5.23984 -2.452244,0.67593 -3.825082,1.39903 -6.120131,1.39903 -5.407513,0 -9.824696,-4.4067 -9.824696,-9.86137 0,-5.34988 2.59372,-9.02824 7.823078,-10.47968 14.137083,-3.88272 28.572836,-6.87991 49.584591,-6.87991 m 1.72391,41.06461 c 27.51962,0 52.04206,6.31401 73.14812,18.96298 3.13867,1.83394 4.98309,3.7098 4.98309,8.35754 0,4.53246 -3.68885,7.865 -7.82308,7.865 -2.03306,0 -3.42161,-0.70738 -5.32367,-1.86539 -18.22416,-11.02462 -40.94933,-16.82512 -65.0683,-16.82512 -13.455909,0 -27.00089,1.72391 -39.665579,4.36479 -2.059256,0.44538 -4.652976,1.24184 -6.198728,1.24184 -4.773492,0 -7.959314,-3.79364 -7.959314,-7.90168 0,-5.29223 3.049586,-7.91739 6.843229,-8.64049 15.530879,-3.54213 31.004121,-5.55947 47.069472,-5.55947"
     fill="#ffffff"
     id="path826"
     style="fill:#000000;fill-opacity:1;stroke-width:5.23984" />
</svg>
