<?xml version="1.0" encoding="UTF-8" standalone="no"?>
<svg
   width="256"
   height="256"
   viewBox="0 0 256 256"
   version="1.1"
   id="svg826"
   sodipodi:docname="support.svg"
   inkscape:version="1.1.1 (c3084ef, 2021-09-22)"
   xmlns:inkscape="http://www.inkscape.org/namespaces/inkscape"
   xmlns:sodipodi="http://sodipodi.sourceforge.net/DTD/sodipodi-0.dtd"
   xmlns="http://www.w3.org/2000/svg"
   xmlns:svg="http://www.w3.org/2000/svg">
  <defs
     id="defs830" />
  <sodipodi:namedview
     id="namedview828"
     pagecolor="#ffffff"
     bordercolor="#666666"
     borderopacity="1.0"
     inkscape:pageshadow="2"
     inkscape:pageopacity="0.0"
     inkscape:pagecheckerboard="0"
     showgrid="false"
     inkscape:zoom="2.1221115"
     inkscape:cx="131.94406"
     inkscape:cy="127.703"
     inkscape:window-width="1399"
     inkscape:window-height="776"
     inkscape:window-x="0"
     inkscape:window-y="23"
     inkscape:window-maximized="0"
     inkscape:current-layer="svg826" />
  <path
     fill="#444"
     d="m 196.04456,41.997524 c -6.78742,-6.78742 -16.96855,-8.484275 -25.45282,-5.090565 0,-5.090565 -1.69686,-10.18113 -6.78742,-15.271695 -3.39371,-3.39371 -10.18113,-6.78742 -18.66541,-6.78742 -5.09057,0 -8.48428,1.696855 -11.87799,1.696855 0,-3.39371 -1.69685,-5.090565 -3.39371,-8.4842754 -8.48427,-10.18113 -25.45282,-10.18113 -33.937096,0 -3.39371,3.3937104 -6.78742,6.7874204 -6.78742,10.1811304 -3.39371,0 -6.78742,-1.696855 -10.18113,-1.696855 -8.484275,0 -13.57484,3.39371 -18.665405,8.484275 -8.484275,8.484275 -8.484275,22.059115 -8.484275,22.059115 v 64.480491 c -5.090565,-5.09057 -13.57484,-13.574841 -25.452825,-13.574841 -3.39371,0 -8.484275,1.696855 -11.877985,3.393711 -6.7874197,3.39371 -10.1811297,8.48427 -11.8779847,15.27169 -5.090565,16.96855 10.1811297,40.72452 10.1811297,42.42138 1.696855,1.69685 20.36226,45.81508 37.33081,64.48048 16.96855,20.36226 35.633955,32.24025 83.145891,32.24025 49.2088,0 71.26792,-27.14968 71.26792,-86.53961 V 75.934624 c 0,-1.696855 1.69685,-22.059115 -8.48428,-33.9371 z m -93.32703,-6.78742 c 0,-5.090565 -1.69685,-16.96855 8.48428,-16.96855 8.48427,0 8.48427,8.484275 8.48427,16.96855 V 103.0843 c 0,5.09057 3.39371,8.48428 8.48428,8.48428 5.09056,0 8.48427,-3.39371 8.48427,-8.48428 V 38.603814 c 0,0 0,-6.78742 8.48428,-6.78742 10.18113,0 8.48428,15.271695 8.48428,15.271695 V 103.0843 c 0,5.09057 3.39371,8.48428 8.48427,8.48428 5.09057,0 8.48428,-3.39371 8.48428,-8.48428 V 62.359784 c 0,-1.696855 0,-10.18113 8.48427,-10.18113 8.48428,0 8.48428,16.96855 8.48428,16.96855 V 169.26164 c 0,57.69307 -22.05912,69.57106 -54.29937,69.57106 -40.724516,0 -55.996211,-8.48428 -69.571051,-27.14968 -15.271695,-16.96855 -35.633955,-61.08678 -35.633955,-62.78363 -5.090565,-5.09057 -11.877985,-20.36226 -10.18113,-27.14968 0,-1.69686 1.696855,-3.39371 3.39371,-5.09057 1.696855,0 3.39371,-1.69685 3.39371,-1.69685 6.78742,0 13.57484,8.48427 15.271695,11.87798 l 10.18113,15.2717 c 1.696855,3.39371 6.78742,5.09056 10.18113,3.39371 6.78742,0 8.484275,-3.39371 8.484275,-6.78742 V 50.481799 c 0,-6.78742 0,-16.96855 8.484275,-16.96855 6.78742,0 8.484275,5.090565 8.484275,13.57484 V 103.0843 c 0,5.09057 3.39371,8.48428 8.484275,8.48428 5.090565,0 8.484271,-3.39371 8.484271,-8.48428 z"
     id="path824"
     style="fill:#000000;fill-opacity:1;stroke-width:16.9685" />
  <path
     d="m 170.32009,144.50628 c -11.03843,-10.13398 -28.93629,-10.13398 -39.97471,0 l -7.49319,6.87262 -7.49979,-6.87262 c -11.03844,-10.13398 -28.929684,-10.13398 -39.968115,0 -12.418236,11.39494 -12.418236,29.83414 0,41.22908 l 47.467905,43.56615 47.4679,-43.56615 c 12.41163,-11.39494 12.41163,-29.84074 0,-41.22908 z m -7.03766,34.45549 -40.43024,37.73006 -40.436852,-37.73006 c -4.073385,-3.7433 -5.65124,-8.62873 -5.65124,-13.82445 0,-5.19572 0.911042,-9.46056 4.991061,-13.19726 3.598046,-3.30757 8.437273,-5.12971 13.61979,-5.12971 5.175901,0 10.015131,3.14253 13.613171,6.45669 l 13.86407,12.04853 13.85744,-12.05513 c 3.60466,-3.31416 8.43729,-6.45669 13.61981,-6.45669 5.18252,0 10.02173,1.82214 13.61979,5.12971 4.07999,3.73668 4.98446,8.00154 4.98446,13.19726 0,5.19572 -1.57129,10.08775 -5.65126,13.83105 z"
     id="path912"
     style="fill:#000000;fill-opacity:1;stroke:#000000;stroke-width:6.602;stroke-opacity:1;stroke-miterlimit:4;stroke-dasharray:none" />
</svg>
