<?xml version="1.0" encoding="UTF-8" standalone="no"?>
<svg
   id="Layer_1"
   data-name="Layer 1"
   viewBox="0 0 256 256"
   version="1.1"
   sodipodi:docname="venmo.svg"
   width="256"
   height="256"
   inkscape:version="1.1.1 (c3084ef, 2021-09-22)"
   xmlns:inkscape="http://www.inkscape.org/namespaces/inkscape"
   xmlns:sodipodi="http://sodipodi.sourceforge.net/DTD/sodipodi-0.dtd"
   xmlns="http://www.w3.org/2000/svg"
   xmlns:svg="http://www.w3.org/2000/svg">
  <defs
     id="defs1137" />
  <sodipodi:namedview
     id="namedview1135"
     pagecolor="#ffffff"
     bordercolor="#666666"
     borderopacity="1.0"
     inkscape:pageshadow="2"
     inkscape:pageopacity="0.0"
     inkscape:pagecheckerboard="0"
     showgrid="false"
     borderlayer="true"
     inkscape:zoom="2.0526726"
     inkscape:cx="142.74074"
     inkscape:cy="128.61282"
     inkscape:window-width="1425"
     inkscape:window-height="784"
     inkscape:window-x="0"
     inkscape:window-y="23"
     inkscape:window-maximized="0"
     inkscape:current-layer="Layer_1" />
  <path
     d="M 234.0751,1.9244187 H 22.660297 c -11.552072,0 -21.6452937,8.3120643 -21.6452937,19.7284303 V 233.53134 c 0,11.48421 10.0932217,21.71313 21.6452937,21.71313 H 234.0129 c 11.61428,0 20.32215,-10.29112 20.32215,-21.70748 V 21.652849 C 254.40291,10.236483 245.62718,1.9244187 234.0751,1.9244187 Z M 140.11485,202.65794 H 81.489351 L 57.983744,62.11055 109.29802,57.236401 121.73783,157.24693 c 11.60862,-18.91418 25.9427,-48.6284 25.9427,-68.910975 0,-11.09406 -1.8999,-18.65973 -4.8685,-24.879643 l 46.72285,-9.454265 c 5.40567,8.922745 7.83708,18.094288 7.83708,29.725521 -0.005,37.036752 -31.61977,85.150602 -57.25711,118.930372 z"
     id="path1132"
     style="stroke-width:0.565446" />
</svg>
