<?xml version="1.0" encoding="UTF-8" standalone="no"?>
<svg
   fill="#000000"
   viewBox="0 0 256 256"
   width="256"
   height="256"
   version="1.1"
   id="svg826"
   sodipodi:docname="youtube-music.svg"
   inkscape:version="1.1.1 (c3084ef, 2021-09-22)"
   xmlns:inkscape="http://www.inkscape.org/namespaces/inkscape"
   xmlns:sodipodi="http://sodipodi.sourceforge.net/DTD/sodipodi-0.dtd"
   xmlns="http://www.w3.org/2000/svg"
   xmlns:svg="http://www.w3.org/2000/svg">
  <defs
     id="defs830" />
  <sodipodi:namedview
     id="namedview828"
     pagecolor="#ffffff"
     bordercolor="#666666"
     borderopacity="1.0"
     inkscape:pageshadow="2"
     inkscape:pageopacity="0.0"
     inkscape:pagecheckerboard="0"
     showgrid="false"
     borderlayer="true"
     inkscape:zoom="2"
     inkscape:cx="127.25"
     inkscape:cy="126.75"
     inkscape:window-width="1288"
     inkscape:window-height="741"
     inkscape:window-x="0"
     inkscape:window-y="23"
     inkscape:window-maximized="0"
     inkscape:current-layer="svg826" />
  <path
     d="M 128,1 C 57.861364,1 1,57.861364 1,128 1,198.13864 57.861364,255 128,255 198.13864,255 255,198.13864 255,128 255,57.861364 198.13864,1 128,1 Z m 0,46.181818 c 44.56545,0 80.81818,36.252727 80.81818,80.818182 0,44.56545 -36.25273,80.81818 -80.81818,80.81818 -44.565455,0 -80.818182,-36.25273 -80.818182,-80.81818 0,-44.565455 36.252727,-80.818182 80.818182,-80.818182 z m 0,11.545455 c -38.198136,0 -69.272727,31.074591 -69.272727,69.272727 0,38.19814 31.074591,69.27273 69.272727,69.27273 38.19814,0 69.27273,-31.07459 69.27273,-69.27273 0,-38.198136 -31.07459,-69.272727 -69.27273,-69.272727 z m -17.20543,31.761274 c 1.00734,0.01905 2.00575,0.291696 2.89763,0.834338 l 51.95455,31.749995 c 1.70873,1.04487 2.76234,2.91244 2.76234,4.92712 0,2.01468 -1.04784,3.87648 -2.76234,4.92712 l -51.95455,31.75 c -0.92363,0.55995 -1.96552,0.84561 -3.01038,0.84561 -0.96982,0 -1.94126,-0.25346 -2.81871,-0.74414 -1.82419,-1.02177 -2.95402,-2.94464 -2.95402,-5.02859 v -63.5 c 0,-2.083955 1.12983,-4.006815 2.95402,-5.028588 0.91497,-0.508 1.92411,-0.751627 2.93146,-0.732865 z"
     id="path824"
     style="stroke-width:5.77273" />
</svg>
